<?xml version="1.0" encoding="UTF-8"?>
<svg id="Layer_2" data-name="Layer 2" xmlns="http://www.w3.org/2000/svg" xmlns:xlink="http://www.w3.org/1999/xlink" viewBox="0 0 210.8 304.47">
  <defs>
    <style>
      .cls-1 {
        fill: url(#linear-gradient);
      }
    </style>
    <linearGradient id="linear-gradient" x1="103.96" y1="305.32" x2="106.84" y2="-.84" gradientUnits="userSpaceOnUse">
      <stop offset="0" stop-color="#625d7d"/>
      <stop offset="1" stop-color="#33313d"/>
    </linearGradient>
  </defs>
  <g id="Layer_5">
    <path class="cls-1" d="M205.56,282.73c-.09-.43-.14-.86-.14-1.29v-110.93l.04-.14,5.34-18.18-5.34-18.19-.04-.14V23.04c0-.43.05-.86.14-1.29l2.05-8.94c.44-1.91-.12-3.92-1.5-5.32l-5.65-5.76c-1.39-1.41-3.39-2.01-5.32-1.6l-9.28,1.98c-.39.09-.8.13-1.2.13H26.15c-.41,0-.81-.04-1.21-.13L15.66.13c-1.92-.41-3.93.19-5.31,1.6l-5.65,5.76c-1.38,1.4-1.95,3.41-1.51,5.32l2.06,8.94c.1.43.15.86.15,1.29v110.81l-.06.21-5.34,18.18,5.34,18.19.06.22v110.79c0,.43-.05.86-.15,1.29l-2.06,8.94c-.44,1.91.13,3.92,1.51,5.32l5.65,5.76c1.38,1.41,3.39,2.01,5.31,1.6l9.28-1.98c.4-.09.8-.13,1.21-.13h158.51c.4,0,.81.04,1.2.13l9.28,1.98c1.93.41,3.93-.19,5.32-1.6l5.65-5.76c1.38-1.4,1.94-3.41,1.5-5.32l-2.05-8.94ZM200.42,252.91c-.71,16.83,1.38,32.09-11.37,39.19l-.09.04c-12.69,5.14-22.48,4.49-39.52,5.08-22.09.08-48.12,0-71.74.02-18.76-.66-48.64,2.39-60.61-8.56-5.62-6.24-6.01-15.9-6.54-25.17.1-26.43-.11-59.22-.25-93.07h0s5.34-18.2,5.34-18.2l-5.34-18.18-.12-.43c-.05-37.27.13-73.49,1.04-101.64,1.37-20.23,14.16-22.84,33.61-24.17,22.84-1.15,54.6-.36,79.33-.58,20.38.34,39.42-1.26,58.72,2.95,12.45,2.63,15.9,11.56,16.88,23.27.95,10.25.58,19.17.66,30.19-.01,22.94,0,46.19,0,69.81v.81l-5.26,17.92,5.26,17.91c0,19.38-.01,38.9,0,56.07-.01,9.99.01,17.98,0,26.74Z"/>
  </g>
</svg>